<svg width="59" height="44" viewBox="0 0 59 44" fill="none" xmlns="http://www.w3.org/2000/svg">
<path d="M11.4067 23.57C5.10675 23.57 0.066748 18.53 0.0667474 12.23C0.0667469 5.93003 5.10674 0.890018 11.4067 0.890018C17.7067 0.890017 22.7467 5.93003 22.7467 12.23C22.7468 23.57 15.6067 33.86 3.84675 43.31L2.79675 42.26C11.1968 35.12 16.6567 28.61 19.1767 20.63C17.0767 22.52 14.3467 23.57 11.4067 23.57ZM46.6868 23.57C40.3868 23.57 35.3468 18.53 35.3468 12.23C35.3467 5.93003 40.3867 0.890015 46.6867 0.890015C52.9867 0.890014 58.0267 5.93002 58.0267 12.23C58.0268 23.57 50.8868 33.86 39.1268 43.31L38.0768 42.26C46.4768 35.12 51.9368 28.61 54.2468 20.63C52.3568 22.52 49.6268 23.57 46.6868 23.57Z" fill="#D9D9D9"/>
</svg>
