<svg width="59" height="44" viewBox="0 0 59 44" fill="none" xmlns="http://www.w3.org/2000/svg">
<path d="M47.5932 20.43C53.8932 20.43 58.9332 25.47 58.9332 31.77C58.9332 38.07 53.8932 43.11 47.5932 43.11C41.2932 43.11 36.2532 38.07 36.2532 31.77C36.2532 20.43 43.3932 10.14 55.1532 0.689995L56.2032 1.73999C47.8032 8.87999 42.3432 15.39 39.8232 23.37C41.9232 21.48 44.6532 20.43 47.5932 20.43ZM12.3132 20.43C18.6132 20.43 23.6532 25.47 23.6532 31.77C23.6532 38.07 18.6132 43.11 12.3132 43.11C6.01324 43.11 0.973243 38.07 0.973243 31.77C0.973243 20.43 8.11324 10.14 19.8732 0.689995L20.9232 1.73999C12.5232 8.87999 7.06324 15.39 4.75324 23.37C6.64324 21.48 9.37324 20.43 12.3132 20.43Z" fill="#D9D9D9"/>
</svg>
