<svg width="54" height="58" viewBox="0 0 54 58" fill="none" xmlns="http://www.w3.org/2000/svg">
<path d="M25 17.2094H41.5079L25 0.699707V17.2094Z" stroke="#7F7047" stroke-linecap="round" stroke-linejoin="round"/>
<path d="M41.5079 31.5858V57.3003H1.41705V0.699707H25" stroke="#7F7047" stroke-linecap="round" stroke-linejoin="round"/>
<path d="M41.5079 21.5839V17.2095" stroke="#7F7047" stroke-linecap="round" stroke-linejoin="round"/>
<path d="M46.1298 16.9619L21.1116 41.9748L20.2774 47.8073L26.11 46.9731L51.1299 21.962L46.1298 16.9619Z" fill="white" stroke="#CC7D45" stroke-linecap="round" stroke-linejoin="round"/>
<path d="M50.2992 21.1296L46.9622 17.7944L49.5869 15.1715C49.7756 14.9831 50.0316 14.8774 50.2983 14.8774C50.565 14.8774 50.8207 14.9831 51.0097 15.1715L52.9256 17.0839C53.1111 17.2723 53.2153 17.5263 53.2153 17.7909C53.2153 18.0555 53.1111 18.3093 52.9256 18.4979L50.2992 21.1296Z" fill="#CC7D45"/>
</svg>
