<svg width="33" height="33" viewBox="0 0 33 33" fill="none" xmlns="http://www.w3.org/2000/svg">
<circle cx="16.5" cy="16.5" r="16.5" fill="#CC7D45"/>
<g clip-path="url(#clip0_1546_167)">
<path d="M17 9C12.5818 9 9 12.5818 9 17C9 20.7517 11.583 23.8998 15.0675 24.7645V19.4448H13.4179V17H15.0675V15.9466C15.0675 13.2237 16.2998 11.9616 18.9731 11.9616C19.48 11.9616 20.3546 12.0611 20.7123 12.1603V14.3763C20.5235 14.3565 20.1955 14.3466 19.7882 14.3466C18.4765 14.3466 17.9696 14.8435 17.9696 16.1354V17H20.5827L20.1338 19.4448H17.9696V24.9414C21.9309 24.463 25.0003 21.0902 25.0003 17C25 12.5818 21.4182 9 17 9Z" fill="white"/>
</g>
<defs>
<clipPath id="clip0_1546_167">
<rect width="16" height="16" fill="white" transform="translate(9 9)"/>
</clipPath>
</defs>
</svg>
