<svg width="150" height="150" viewBox="0 0 150 150" fill="none" xmlns="http://www.w3.org/2000/svg">
<path fill-rule="evenodd" clip-rule="evenodd" d="M110.681 60.016C110.746 59.5015 111.142 58.0031 113.243 59.0642C115.34 60.1279 115.254 59.8737 116.118 60.2095C116.981 60.5453 116.143 62.1617 116.011 62.4055C115.88 62.6571 115.822 62.9851 115.563 64.1677C115.312 65.3477 114.283 64.9572 113.819 64.8557C113.35 64.7438 111.845 63.9274 110.706 63.6731C109.566 63.4258 110.113 62.5452 110.323 61.8094C110.665 60.6433 110.628 60.5253 110.681 60.016ZM59.2254 59.7895C59.4834 58.7076 59.7424 58.705 61.1817 59.1249C61.5355 59.2299 62.0956 59.3523 62.8642 59.4165C63.6296 59.4876 65.0563 59.8503 64.8921 60.816C64.7153 61.8866 64.6163 62.8732 63.7897 63.6054C63.3296 64.0124 62.6294 64.0089 62.0335 64.0219C61.5439 64.0323 60.6847 64.1712 60.2194 63.6939C59.9077 63.3781 59.3191 63.1109 58.8875 62.8159C58.4558 62.5174 58.3158 61.2602 58.6116 60.8836C58.8463 60.5791 59.118 60.311 59.2254 59.7895ZM10.6016 70.4182C11.9377 70.492 13.5539 69.3337 14.154 68.5641C15.2501 67.1472 11.2723 60.0698 19.5965 55.4036C20.1113 55.119 20.4398 54.9559 21.4643 55.6101C22.7351 56.4239 25.0262 57.3931 26.1855 58.1453C27.1436 58.7614 26.8309 59.0538 26.136 59.2776C25.8159 59.3757 19.4648 62.1513 21.0326 66.6223C21.2337 67.1984 22.0403 67.5472 22.4962 67.4318C22.9489 67.3268 24.9357 67.0726 25.301 67.2999C25.9307 67.7268 26.4277 68.3602 27.1562 68.5571C27.1562 68.5571 27.6501 68.5467 27.9417 68.2855C28.8788 67.4387 31.7879 65.8796 33.3052 66.0288C34.3086 66.1242 35.1562 67.4691 35.51 67.5298C35.8595 67.5879 36.5945 67.1914 37.163 67.1203C37.9769 67.0214 39.3962 68.879 40.169 69.5566C40.5228 69.8725 40.268 70.5058 40.0543 70.7774C39.8437 71.0585 38.0011 73.6276 37.9485 75.1903C37.8905 76.759 40.8566 78.6912 41.9674 76.0813C42.9328 73.2268 43.5878 55.8981 43.7521 55.4947C43.9447 55.0409 44.2785 55.014 44.8049 55.0001C45.5166 54.9828 49.185 56.6877 49.6166 57.0738C50.0778 57.4816 50.2706 58.01 50.1558 58.436C49.9335 59.328 48.6923 63.3174 48.7323 64.9581C48.7618 66.2249 49.1071 66.8964 49.8388 66.5572C49.8388 66.5572 51.8994 65.3338 53.684 66.5164C54.1241 66.7403 54.4211 67.4283 55.2844 68.0009C56.1394 68.5736 57.5839 67.5879 57.7187 67.5879C57.8556 67.5879 57.5092 65.6488 58.2451 65.3104C58.978 64.9781 63.757 66.9442 64.0898 67.4118C64.7531 68.3471 64.0613 68.6656 64.5467 69.5436C65.0311 70.4078 68.9058 68.8348 69.3132 68.0591C70.2398 66.2457 69.8029 65.2765 70.9831 65.2896C71.6665 65.293 74.6314 66.2257 75.2684 66.6995C76.0507 67.2791 75.4295 70.157 75.7991 70.6959C76.3381 71.4854 80.1876 69.1775 81.0109 67.2018C81.6353 65.7173 82.7671 65.1889 83.3062 65.1776C83.8432 65.1716 83.9927 65.385 84.7571 65.5507C85.5342 65.7173 87.899 66.4617 88.1295 67.3129C88.4349 68.466 88.0685 68.7506 87.7557 70.2377C87.4388 71.7258 87.3157 75.2137 87.3283 76.6982C87.3357 77.3221 87.6936 77.7524 88.4549 77.762C89.532 77.7689 89.6268 76.6436 89.5941 76.0579C89.5036 74.4137 90.8281 66.4427 97.0592 65.7711C98.2184 65.6496 98.8649 66.7134 99.8756 66.303C100.703 65.9681 100.691 58.0916 100.665 56.3424C100.662 55.9962 100.962 55.512 101.595 55.6543C102.192 55.7932 101.92 55.637 102.78 56.142C103.643 56.6409 104.816 56.7693 106.086 57.23C106.626 57.3384 106.72 57.9657 106.638 58.3111C105.725 61.7582 105.668 71.6685 105.494 77.5451C105.736 77.9962 106.21 78.2131 106.516 78.142C108.402 77.7082 108.247 77.047 108.414 75.6883C108.514 74.8883 109.152 67.8795 109.176 67.4587C109.2 67.0491 109.703 65.9064 110.767 66.0791C112.252 66.3168 115.131 67.3875 115.205 67.483C115.282 67.5784 115.69 67.8725 115.435 68.8044C115.185 69.7432 114.353 76.3529 115.431 77.4678C116.158 78.2166 116.456 78.4917 116.958 78.4639C117.533 78.4292 119.313 77.5858 119.281 76.9021C119.256 76.3555 118.199 74.8406 118.055 74.6645C117.751 74.2818 117.595 73.4142 118.75 72.7426C119.721 71.7535 124.376 68.4721 125.393 67.496C125.714 67.2183 126.474 66.3507 127.618 67.0934C128.766 67.8456 134.774 71.167 134.626 71.2485C134.478 71.3197 135.712 71.6242 134.787 72.675C133.903 73.6814 133.212 75.8236 133.697 76.536C134.181 77.2475 137.15 76.6401 138.118 76.156C138.71 75.8505 141.285 73.9356 141.367 73.9088C141.618 73.8272 141.473 74.058 141.717 74.2853C141.277 75.0376 140.755 76.634 139.525 77.9181C138.945 79.0331 140.315 78.3754 140.075 78.9177C139.837 79.4669 136.765 82.1245 134.087 81.9371C132.64 81.8364 132.286 80.6157 131.46 79.6769C131.024 79.1823 130.945 79.1893 130.299 79.4469C129.654 79.7046 127.231 81.2864 126.59 81.5033C125.943 81.7202 125.578 82.0056 124.599 81.6291C123.624 81.2534 122.122 79.6873 121.682 80.0604C121.149 80.5115 118.889 81.6056 118.006 81.9649C117.117 82.3206 116.316 82.5175 115.554 81.9822C114.699 81.3783 112.959 80.1176 111.047 80.8699C109.172 81.7002 107.563 82.4802 106.407 82.6659C105.498 82.8091 104.885 82.416 104.762 82.3709L102.069 81.3211C101.929 81.2638 101.003 81.0261 100.35 81.1345C98.9513 81.3861 96.6022 82.8906 94.6775 82.816C93.6773 82.7718 90.548 81.2872 90.1785 80.8898C89.8121 80.4977 88.9571 80.3987 88.5865 80.6295C87.7473 81.1553 86.1228 81.8772 85.8353 81.9657C85.5468 82.0629 84.8109 82.534 83.5726 81.8399C82.3428 81.1484 81.3973 80.8942 81.3678 80.836C81.3395 80.7753 80.5045 80.6538 80.5371 79.355C80.5708 78.057 80.2665 76.6739 80.2423 76.4032C80.2212 76.1351 79.9043 75.3864 79.0736 75.7221C78.0776 76.1213 75.7338 77.3898 75.1294 78.3181C74.524 79.243 74.6441 79.0504 74.2365 79.9215C73.8375 80.7953 73.8007 80.9783 73.6775 81.2699C73.4711 81.7584 72.4772 82.0256 71.9823 81.8026C70.5188 81.1484 69.4238 80.4161 68.3593 79.7376C67.4127 79.1346 67.4422 78.5619 67.6065 77.7047C67.8529 76.4405 68.175 73.9799 68.2193 73.5426C68.2719 73.1053 68.6225 72.2889 67.3432 72.7123C66.0724 73.1287 65.6691 73.3665 64.8921 73.8003C64.3162 74.1222 63.9129 74.1994 63.815 75.4202C63.7118 76.6366 63.3538 79.5181 63.1853 80.4525C63.1075 80.9072 62.3662 81.8972 61.248 81.6291C60.2146 81.3916 59.2284 81.0322 58.3199 80.5619C57.4313 80.1046 57.0491 80.0161 57.246 78.7919C57.4397 77.5685 57.9093 73.7023 57.9409 73.068C57.9746 72.4346 58.1062 71.2451 57.3902 71.3874C56.8016 71.5054 56.7111 71.5435 56.1436 71.9973C55.8687 72.2142 55.5023 79.7584 48.6343 81.8937C46.718 82.4906 44.2037 80.0369 43.0435 80.2634C42.2054 80.43 41.3872 80.9783 40.2428 81.6091C38.6602 82.4837 37.2662 81.1684 36.4102 80.6738C35.5679 80.1818 34.995 80.1246 34.2181 80.5384C32.8198 81.2733 32.3471 81.8087 31.7627 82.0802C31.1583 82.3579 29.361 82.3345 28.7483 82.0195C26.6467 81.013 23.6975 78.7216 23.4301 78.5524C23.1626 78.3789 22.6898 77.7281 22.9079 76.9455C23.2079 75.8575 23.6522 74.5768 23.6848 74.163C23.7301 73.7023 23.6691 73.3665 23.4058 73.2953C21.2705 72.7357 20.9705 73.7187 20.9463 74.5118C20.9041 75.9555 20.9252 84.1774 20.6905 85.6046C20.4851 86.8488 20.0903 88.4722 18.9637 89.726C17.8371 90.984 16.5452 91.614 15.5133 92.0139C14.6984 92.3324 14.353 92.1293 13.934 91.902C12.8358 91.3189 11.1364 89.9975 10.3183 89.398C9.94349 89.1203 9.81609 88.8149 10.3878 88.4349C14.1393 85.9812 15.0848 85.2454 14.99 81.0903C14.8995 77.1859 14.9742 76.5256 14.8921 75.7221C14.8016 74.9187 12.9179 75.2918 12.342 75.0948C11.7861 74.9126 11.7334 74.7964 11.1364 73.7699C10.2446 73.1296 9.6729 72.6177 9.16225 71.685C8.52524 70.5128 9.92349 70.3774 10.6016 70.4182Z" fill="#903233"/>
<path d="M33.9757 90.6282C33.772 90.4683 33.5333 90.3417 33.2724 90.2551C33.0258 90.1708 32.7612 90.128 32.4943 90.1293C31.9679 90.1293 31.5403 90.275 31.2076 90.5735C30.8781 90.872 30.7138 91.259 30.7138 91.7327C30.7138 92.1865 30.8696 92.563 31.195 92.8606C31.5162 93.1591 31.9226 93.3049 32.4122 93.3049C32.6926 93.3053 32.9706 93.2617 33.2313 93.1765C33.4861 93.0854 33.7325 92.9491 33.9715 92.7695V93.553C33.7625 93.6811 33.5305 93.7815 33.2839 93.8506C33.0214 93.9174 32.748 93.9508 32.4732 93.9495C32.1228 93.9512 31.7752 93.897 31.4498 93.7899C31.1374 93.6821 30.8559 93.5216 30.6233 93.3188C30.3892 93.1114 30.2061 92.8686 30.0842 92.6038C29.9558 92.3221 29.8915 92.0232 29.8946 91.7223C29.8946 91.4099 29.9579 91.1227 30.0842 90.8477C30.2084 90.5735 30.3927 90.3358 30.6359 90.1293C30.8639 89.9243 31.1429 89.7624 31.454 89.6547C31.7667 89.5462 32.1036 89.4959 32.4617 89.4959C32.7459 89.4959 33.0165 89.5297 33.2724 89.6044C33.5314 89.6755 33.7777 89.784 34.02 89.9332L33.9757 90.6282ZM38.3136 93.8341V89.5974H41.0091V90.1805H39.0959V91.2442H41.008V91.8516H39.0959V93.2172H41.008V93.8333L38.3136 93.8341ZM45.2691 93.8341V89.5974H46.0545V93.2172H47.8066V93.8333L45.2691 93.8341ZM51.8044 93.8341V89.5974H54.503V90.1805H52.5899V91.2442H54.503V91.8516H52.5899V93.2172H54.503V93.8333L51.8044 93.8341ZM59.5327 91.3839H59.8285C60.2076 91.3839 60.4666 91.3431 60.6266 91.2511C60.7793 91.1635 60.853 91.0108 60.853 90.7974C60.853 90.5666 60.7835 90.4069 60.6425 90.3124C60.4992 90.2169 60.2318 90.1701 59.8285 90.1701H59.5337L59.5327 91.3839ZM59.5327 93.2615H59.8001C60.0802 93.2615 60.2844 93.2476 60.4171 93.2311C60.5342 93.2166 60.6462 93.1817 60.7456 93.1287C60.84 93.0696 60.9162 92.9929 60.9678 92.9049C61.0215 92.8058 61.0484 92.6984 61.0468 92.5899C61.0506 92.4675 61.0165 92.3463 60.9478 92.2377C60.8865 92.139 60.7922 92.0568 60.6761 92.0008C60.5954 91.9654 60.5078 91.9422 60.4171 91.9323C60.2922 91.9126 60.1652 91.9039 60.038 91.9062H59.5327V93.2615ZM58.764 93.8341V89.5974H59.9812C60.3308 89.5974 60.5856 89.6148 60.7499 89.6451C60.9183 89.679 61.0552 89.7328 61.1742 89.8039C61.3216 89.9028 61.4416 90.0312 61.5195 90.1839C61.6058 90.3462 61.6427 90.5163 61.6427 90.7054C61.6427 90.9293 61.5847 91.1193 61.4658 91.2685C61.3462 91.4218 61.1639 91.5348 60.952 91.5869C61.0854 91.6025 61.2133 91.641 61.3275 91.7001C61.4416 91.7591 61.5393 91.8374 61.6142 91.9296C61.7743 92.1119 61.8564 92.3496 61.8564 92.6307C61.8564 92.8042 61.8237 92.9665 61.7532 93.1192C61.6889 93.266 61.5899 93.4008 61.4616 93.5157C61.3283 93.6329 61.1592 93.7183 60.972 93.763C60.7751 93.8098 60.4497 93.8341 59.9896 93.8341H58.764ZM66.7998 91.4039H66.944C67.3546 91.4039 67.6347 91.3605 67.7663 91.278C67.9063 91.1904 67.977 91.0412 67.977 90.8243C67.977 90.59 67.9032 90.4278 67.7548 90.3332C67.6105 90.2343 67.3389 90.1909 66.944 90.1909H66.7998V91.4039ZM66.7545 91.9357V93.8341H66.0185V89.5974H67.1082C67.4294 89.5974 67.68 89.6148 67.8568 89.6486C68.0337 89.6859 68.1822 89.7466 68.3096 89.8343C68.457 89.9367 68.5729 90.0685 68.655 90.2308C68.7371 90.3904 68.7739 90.57 68.7739 90.7635C68.7739 91.1019 68.6877 91.3665 68.4992 91.56C68.3096 91.7526 68.0337 91.8646 67.6673 91.9054L69.3341 93.8341H68.4496L66.8377 91.9357H66.7545ZM74.1827 92.17H75.5283L75.0303 91.2008C74.9983 91.1314 74.9695 91.0611 74.9439 90.99C74.9144 90.9093 74.8776 90.8208 74.8492 90.7228C74.8054 90.885 74.7477 91.0445 74.6765 91.2L74.1827 92.17ZM76.3506 93.8341L75.8031 92.7426H73.891L73.3277 93.8341H72.5044L74.845 89.4282L77.1772 93.8341H76.3506ZM82.1826 90.1805V93.8333H81.4014V90.1805H80.1168V89.5974H83.4619V90.1805H82.1826ZM87.426 93.8333V89.5974H90.1204V90.1805H88.2073V91.2442H90.1204V91.8516H88.2073V93.2172H90.1204V93.8333H87.426ZM99.1806 93.8333V89.5974H99.9629V93.8341L99.1806 93.8333ZM104.454 93.8333V89.4282L107.526 92.0173C107.608 92.0919 107.69 92.17 107.78 92.2541C107.863 92.3357 107.953 92.4311 108.048 92.5318V89.5974H108.768V93.9999L105.646 91.3631C105.564 91.2885 105.478 91.2173 105.405 91.1331C105.325 91.0539 105.25 90.9711 105.182 90.885V93.8341L104.454 93.8333ZM114.028 93.2103H114.686C115.053 93.2103 115.323 93.1903 115.501 93.1461C115.682 93.1053 115.843 93.0307 115.975 92.9326C116.159 92.7938 116.294 92.6272 116.385 92.4207C116.484 92.1937 116.531 91.9538 116.525 91.7127C116.525 91.4412 116.48 91.2043 116.385 91.0013C116.302 90.8051 116.16 90.6291 115.975 90.4894C115.835 90.3859 115.667 90.3123 115.485 90.275C115.3 90.2317 114.995 90.2108 114.592 90.2108H114.028V93.2103ZM113.244 93.8341V89.5974H114.301C114.987 89.5974 115.472 89.6243 115.752 89.6859C116.036 89.7466 116.283 89.8516 116.488 89.9905C116.773 90.177 116.982 90.4173 117.125 90.7123C117.27 91.0073 117.344 91.3431 117.344 91.7188C117.344 92.0954 117.27 92.4277 117.125 92.7157C116.992 92.9974 116.772 93.2459 116.488 93.4376C116.278 93.5812 116.032 93.6851 115.768 93.7422C115.501 93.8029 115.082 93.8341 114.514 93.8341H113.244ZM121.617 93.8341V89.5974H122.398V93.8341H121.617ZM127.91 92.17H129.258L128.765 91.2008C128.732 91.1315 128.701 91.0612 128.675 90.99C128.642 90.9093 128.612 90.8208 128.58 90.7228C128.555 90.8139 128.527 90.9024 128.497 90.9804C128.469 91.0611 128.437 91.1331 128.407 91.2008L127.91 92.17ZM130.077 93.8341L129.534 92.7426H127.621L127.058 93.8341H126.24L128.575 89.4282L130.907 93.8341H130.077Z" fill="#2B2A29"/>
</svg>
