<svg width="150" height="150" viewBox="0 0 150 150" fill="none" xmlns="http://www.w3.org/2000/svg">
<g clip-path="url(#clip0_2397_78)">
<mask id="mask0_2397_78" style="mask-type:luminance" maskUnits="userSpaceOnUse" x="2" y="50" width="146" height="49">
<path d="M148 50H2V99H148V50Z" fill="white"/>
</mask>
<g mask="url(#mask0_2397_78)">
<path d="M71.6967 99.0003C70.5819 98.9986 69.4683 98.9523 68.3628 98.8617C65.1527 98.5938 62.0283 98.0137 59.1014 97.1422C57.1934 96.5776 55.36 95.9183 53.6185 95.1705L53.5356 95.1327C53.4147 95.0808 53.3304 95.0015 53.3003 94.9114C53.2701 94.8213 53.2965 94.7274 53.3739 94.6492C53.4512 94.5711 53.5736 94.5147 53.7155 94.492C53.8573 94.4693 54.0077 94.4819 54.1351 94.5273L54.4606 94.6387C54.7216 94.7261 54.9816 94.8148 55.2444 94.8999C58.1642 95.8521 60.9422 96.5262 63.7362 96.9596C65.051 97.1639 66.3859 97.3133 67.732 97.4069C69.2207 97.509 70.7192 97.543 72.2157 97.5086C73.2661 97.4871 74.3829 97.4283 75.629 97.3314C77.6278 97.1743 79.586 96.9352 81.755 96.6611L82.0604 96.623C83.5203 96.4386 85.0322 96.2477 86.5328 96.1002C87.9431 95.9558 89.3652 95.8613 90.7924 95.817C92.1494 95.7765 93.5094 95.8 94.8609 95.8871C95.2448 95.9121 95.6269 95.9448 96.0088 95.9783L96.2943 96.0032C96.4077 96.0139 96.74 96.0413 96.8446 96.2673C96.8685 96.3216 96.8722 96.3787 96.8555 96.434C96.8388 96.4894 96.8021 96.5416 96.7482 96.5867C96.6984 96.6292 96.6337 96.664 96.5591 96.6882C96.4845 96.7124 96.402 96.7255 96.318 96.7265L95.9558 96.6949C95.7677 96.677 95.59 96.6592 95.4112 96.6458C94.5532 96.5831 93.6886 96.5646 92.8258 96.5905C92.2122 96.6084 91.5888 96.6417 90.9717 96.6899C90.1736 96.7523 89.3453 96.8392 88.5114 96.9498C86.1934 97.2555 83.8565 97.6309 81.5967 97.9943L79.8485 98.2739C78.434 98.5047 77.0011 98.6881 75.5558 98.8235C74.544 98.9141 73.5251 98.9701 72.5037 98.9913C72.2362 98.9972 71.967 99.0002 71.6962 99.0002" fill="#E21F26"/>
<path d="M3.98185 83.1382H2V87.934H3.98185V83.1382Z" fill="white"/>
<path d="M8.97621 84.1943V87.9344H6.99447V84.1943H5.36621V83.1392H10.6039V84.1943H8.97621Z" fill="white"/>
<path d="M16.3072 87.1015H13.4766L13.0218 87.9342H10.9082L13.81 83.1392H15.9734L18.8752 87.9342H16.7628L16.3072 87.1015ZM15.7814 86.1534L14.8916 84.5564L14.002 86.1534H15.7814Z" fill="white"/>
<path d="M22.2321 83.1387V86.8781H24.6081V87.9345H20.25V83.1387H22.2321Z" fill="white"/>
<path d="M28.1166 83.1382H26.1348V87.934H28.1166V83.1382Z" fill="white"/>
<path d="M34.8902 87.1015H32.0596L31.6048 87.9342H29.4912L32.393 83.1392H34.5564L37.4582 87.9342H35.3458L34.8902 87.1015ZM34.3639 86.1534L33.4746 84.5564L32.585 86.1534H34.3639Z" fill="white"/>
<path d="M38.833 87.9345V83.1387H40.8148L44.4749 86.071V83.1387H46.4463V87.9345H44.4749L40.8148 85.0024V87.9347L38.833 87.9345Z" fill="white"/>
<path d="M53.7669 83.1389L55.0821 86.2364L56.699 83.1389H58.2771L59.8939 86.2364L61.2089 83.1387H63.2817L61.0058 87.9345H58.9843L57.4885 85.1552L55.9917 87.9347H53.9693L51.6943 83.1389H53.7669Z" fill="white"/>
<path d="M64.0813 85.5368C64.0767 85.195 64.1832 84.8563 64.3942 84.5413C64.5986 84.2361 64.8987 83.96 65.2765 83.7294C65.6544 83.4988 66.1023 83.3185 66.5934 83.1993C67.6902 82.9407 68.8987 82.9407 69.9954 83.1993C70.4944 83.3208 70.9498 83.5036 71.3353 83.737C71.7091 83.9658 72.0065 84.2392 72.21 84.5413C72.6285 85.179 72.6285 85.895 72.21 86.5327C72.0062 86.8346 71.7089 87.1079 71.3354 87.3368C70.9502 87.5704 70.4947 87.7532 69.9955 87.8745C68.8988 88.133 67.6903 88.133 66.5935 87.8745C65.8465 87.6918 65.2059 87.3701 64.757 86.9524C64.3082 86.5348 64.0724 86.0409 64.0813 85.5368ZM66.1541 85.5368C66.1509 85.7185 66.2095 85.8986 66.3259 86.065C66.5479 86.383 66.9599 86.6332 67.4729 86.7615C68.0023 86.8931 68.5915 86.8931 69.121 86.7615C69.3761 86.6975 69.6094 86.6034 69.8083 86.4843C70.008 86.3657 70.1678 86.2231 70.2783 86.0649C70.3918 85.898 70.4504 85.7183 70.4504 85.5367C70.4504 85.3552 70.3918 85.1755 70.2783 85.0086C70.1675 84.8503 70.0078 84.7076 69.8083 84.5886C69.6091 84.4699 69.3758 84.3761 69.121 84.3121C68.5915 84.1804 68.0023 84.1804 67.4729 84.3121C66.9594 84.4399 66.5471 84.6903 66.3259 85.0086C66.2094 85.175 66.1508 85.355 66.1539 85.5368" fill="white"/>
<path d="M73.9377 85.5368C73.9331 85.195 74.0396 84.8562 74.2507 84.5413C74.455 84.2361 74.7551 83.96 75.133 83.7294C75.5109 83.4988 75.9588 83.3185 76.4499 83.1993C77.5467 82.9407 78.7551 82.9407 79.8519 83.1993C80.3509 83.3206 80.8064 83.5034 81.1917 83.7369C81.5661 83.9656 81.8638 84.2391 82.0673 84.5413C82.4846 85.1791 82.4846 85.8948 82.0673 86.5326C81.8636 86.8347 81.5659 87.1081 81.1917 87.3368C80.8067 87.5705 80.3511 87.7533 79.8519 87.8745C78.7551 88.133 77.5467 88.133 76.4499 87.8745C75.703 87.6918 75.0623 87.3701 74.6135 86.9524C74.1646 86.5347 73.9289 86.0409 73.9377 85.5368ZM76.0105 85.5368C76.0079 85.7185 76.0665 85.8985 76.1826 86.0649C76.4053 86.3827 76.8175 86.6328 77.3304 86.7614C77.8595 86.893 78.4484 86.893 78.9775 86.7614C79.2328 86.6972 79.4664 86.6032 79.6659 86.4842C79.8649 86.3653 80.0246 86.2227 80.1358 86.0648C80.2488 85.8978 80.307 85.7182 80.307 85.5367C80.307 85.3551 80.2488 85.1755 80.1358 85.0085C80.0244 84.8505 79.8647 84.7078 79.6659 84.5886C79.3581 84.4081 78.9753 84.2863 78.5619 84.2374C78.1484 84.1884 77.7214 84.2143 77.3304 84.312C77.0765 84.3755 76.8447 84.4694 76.6477 84.5886C76.4513 84.7084 76.2933 84.851 76.1826 85.0085C76.0664 85.1749 76.0077 85.355 76.0103 85.5368" fill="white"/>
<path d="M84.1406 83.1392H87.0727C87.5767 83.137 88.0753 83.2042 88.5336 83.3361C88.9797 83.4634 89.3846 83.6414 89.7278 83.8613C90.0694 84.0815 90.342 84.3401 90.5315 84.6238C90.7242 84.9117 90.8238 85.2208 90.8246 85.5332C90.8254 85.8456 90.7274 86.1549 90.5362 86.4432C90.3498 86.7284 90.0786 86.9886 89.7373 87.2099C89.3954 87.4309 88.991 87.6098 88.5449 87.7375C88.0828 87.8698 87.5804 87.937 87.0727 87.9344H84.1406V83.1392ZM86.1225 86.8786H86.5773C86.8917 86.8819 87.2042 86.8474 87.498 86.777C87.7542 86.7149 87.9865 86.6193 88.1797 86.4966C88.3673 86.3761 88.512 86.232 88.6043 86.0736C88.7048 85.9017 88.7544 85.7197 88.7508 85.5365C88.7533 85.3541 88.702 85.173 88.5996 85.0024C88.5053 84.8415 88.3572 84.6952 88.1652 84.5734C87.9732 84.4517 87.7419 84.3573 87.4868 84.2967C87.1969 84.2263 86.8881 84.1916 86.5773 84.1944H86.1225V86.8786Z" fill="white"/>
<path d="M100.904 84.1944H98.518V84.9959H100.692V86.0516H98.518V87.9342H96.5361V83.1392H100.905L100.904 84.1944Z" fill="white"/>
<path d="M104.575 83.1382H102.593V87.934H104.575V83.1382Z" fill="white"/>
<path d="M106.678 87.9345V83.1387H108.66L112.32 86.071V83.1387H114.291V87.9345H112.32L108.66 85.0024V87.9347L106.678 87.9345Z" fill="white"/>
<path d="M118.376 83.1382H116.395V87.934H118.376V83.1382Z" fill="white"/>
<path d="M124.664 84.3659C124.47 84.2637 124.252 84.1809 124.018 84.1206C123.818 84.0696 123.606 84.0426 123.391 84.0409C123.167 84.0352 122.947 84.0755 122.764 84.1557C122.687 84.1892 122.625 84.234 122.583 84.2862C122.541 84.3384 122.519 84.3963 122.521 84.4549C122.517 84.5322 122.56 84.6076 122.642 84.6652C122.733 84.725 122.842 84.7734 122.961 84.8079C123.104 84.8514 123.253 84.8866 123.406 84.9131C123.57 84.9428 123.735 84.9744 123.896 85.0083C124.543 85.1445 125.016 85.3257 125.316 85.5519C125.616 85.7792 125.766 86.075 125.766 86.4394C125.771 86.6678 125.704 86.8946 125.57 87.1067C125.441 87.3028 125.244 87.4781 124.993 87.6195C124.722 87.7684 124.405 87.8809 124.062 87.9502C123.659 88.0322 123.237 88.072 122.813 88.0679C121.852 88.0686 120.915 87.8793 120.135 87.5267L120.984 86.5221C121.245 86.6729 121.542 86.7973 121.864 86.8908C122.134 86.9687 122.426 87.0098 122.722 87.0115C123.047 87.0115 123.287 86.9651 123.446 86.8724C123.558 86.8112 123.635 86.7289 123.667 86.6377C123.699 86.5466 123.683 86.4514 123.623 86.3663C123.575 86.308 123.505 86.2578 123.42 86.2199C123.306 86.1689 123.182 86.1271 123.051 86.0957C122.899 86.0582 122.716 86.0154 122.5 85.969C122.244 85.9178 121.993 85.8619 121.747 85.8C121.508 85.7418 121.286 85.6592 121.089 85.5556C120.892 85.4499 120.734 85.3189 120.625 85.1714C120.497 84.9856 120.436 84.7843 120.447 84.5819C120.442 84.3612 120.505 84.142 120.634 83.9366C120.752 83.7499 120.931 83.5809 121.159 83.4405C121.397 83.2982 121.68 83.1888 121.989 83.1193C122.34 83.0402 122.712 83.0015 123.085 83.0051C123.485 83.0068 123.883 83.0401 124.27 83.1041C124.681 83.1696 125.079 83.2667 125.453 83.3931L124.664 84.3659Z" fill="white"/>
<path d="M129.497 84.9894H132.358V83.1387H134.34V87.9337H132.359V85.9564H129.497V87.9341H127.516V83.1391H129.497L129.497 84.9894Z" fill="white"/>
<path d="M140.781 84.1944H138.425V84.9959H140.65V86.0516H138.425V86.8784H140.781V87.9342H136.444V83.1392H140.781V84.1944Z" fill="white"/>
<path d="M146.898 84.3659C146.704 84.2638 146.486 84.1811 146.252 84.1205C146.052 84.0697 145.84 84.0427 145.625 84.0408C145.401 84.0351 145.181 84.0754 144.997 84.1556C144.921 84.1891 144.858 84.234 144.816 84.2861C144.774 84.3383 144.752 84.3963 144.754 84.4548C144.75 84.5321 144.793 84.6075 144.875 84.6651C144.966 84.7251 145.075 84.7735 145.195 84.8079C145.337 84.8514 145.486 84.8866 145.639 84.913C145.803 84.9428 145.969 84.9743 146.129 85.0082C146.776 85.1444 147.249 85.3256 147.549 85.5519C147.849 85.7791 147.999 86.0749 148 86.4393C148.005 86.6677 147.938 86.8945 147.803 87.1067C147.675 87.3027 147.477 87.478 147.226 87.6194C146.955 87.7683 146.639 87.8808 146.297 87.9501C145.893 88.0321 145.472 88.0718 145.048 88.0679C144.086 88.0685 143.149 87.8792 142.368 87.5266L143.217 86.522C143.479 86.6728 143.776 86.7972 144.098 86.8908C144.367 86.9686 144.659 87.0097 144.956 87.0115C145.28 87.0115 145.52 86.9651 145.679 86.8723C145.792 86.8113 145.87 86.729 145.902 86.6378C145.933 86.5465 145.917 86.4512 145.856 86.3662C145.808 86.3081 145.739 86.2579 145.655 86.2199C145.54 86.1691 145.416 86.1273 145.286 86.0956C145.133 86.0582 144.949 86.0153 144.734 85.9689C144.478 85.9177 144.228 85.8619 143.98 85.8C143.741 85.7416 143.519 85.659 143.323 85.5555C143.126 85.4495 142.968 85.3186 142.858 85.1713C142.73 84.9856 142.669 84.7842 142.68 84.5819C142.676 84.3611 142.739 84.1419 142.868 83.9365C142.986 83.7497 143.166 83.5807 143.395 83.4405C143.632 83.2981 143.915 83.1886 144.224 83.1193C144.576 83.0402 144.947 83.0015 145.32 83.0051C145.719 83.0068 146.117 83.0401 146.503 83.104C146.915 83.1695 147.312 83.2666 147.687 83.3931L146.898 84.3659Z" fill="white"/>
<path d="M71.9426 67.2958C70.4313 68.6288 68.2858 69.6254 65.8158 70.1416C63.3457 70.6578 60.6788 70.667 58.1999 70.1679C55.721 69.6688 53.5582 68.6872 52.0237 67.3647C50.4891 66.0422 49.6622 64.4472 49.6622 62.8099C49.6622 61.1726 50.4891 59.5776 52.0237 58.2551C53.5582 56.9326 55.721 55.951 58.1999 55.4518C60.6788 54.9527 63.3457 54.962 65.8158 55.4782C68.2858 55.9944 70.4313 56.9909 71.9426 58.324H81.0329C79.5794 55.8795 76.9738 53.7725 73.5646 52.285C70.1555 50.7975 66.1055 50.0004 61.9565 50.0005C50.7114 50.0005 41.5947 55.7354 41.5947 62.8099C41.5952 65.8118 43.2715 68.7183 46.3311 71.022C49.3907 73.3257 53.6393 74.8803 58.3352 75.4145C63.0311 75.9486 67.8761 75.4284 72.0244 73.9446C76.1727 72.4607 79.3609 70.1076 81.0325 67.2959L71.9426 67.2958Z" fill="white"/>
<path d="M38.0728 51.0347H29.9951V75.0476H38.0728V51.0347Z" fill="white"/>
<path d="M111.683 75.0476H120.155L101.317 51.0347H97.258L78.1045 75.0476H87.0491L90.5457 70.6247H108.141L111.683 75.0476ZM94.2607 65.9282L99.2866 59.5716L104.378 65.9282H94.2607Z" fill="white"/>
</g>
</g>
<defs>
<clipPath id="clip0_2397_78">
<rect width="146" height="49" fill="white" transform="translate(2 50)"/>
</clipPath>
</defs>
</svg>
