<svg width="33" height="31" viewBox="0 0 33 31" fill="none" xmlns="http://www.w3.org/2000/svg">
<ellipse cx="16.1734" cy="15.1053" rx="16.1734" ry="15.1053" fill="white"/>
<g clip-path="url(#clip0_2339_346)">
<rect x="7.8418" y="6.32379" width="16.6635" height="15.5631" rx="7" fill="#CC7D45"/>
<path d="M16.1735 7.72508C18.3997 7.72508 18.6633 7.73419 19.5388 7.77067C20.3524 7.80411 20.7918 7.93177 21.0847 8.03816C21.472 8.17799 21.7519 8.34821 22.0416 8.61874C22.3345 8.89231 22.5135 9.15068 22.6632 9.5124C22.7771 9.78597 22.9138 10.1994 22.9496 10.9562C22.9886 11.7769 22.9984 12.0232 22.9984 14.0992C22.9984 16.1784 22.9886 16.4246 22.9496 17.2423C22.9138 18.0022 22.7771 18.4125 22.6632 18.6861C22.5135 19.0478 22.3312 19.3092 22.0416 19.5798C21.7486 19.8533 21.472 20.0205 21.0847 20.1603C20.7918 20.2667 20.3492 20.3944 19.5388 20.4278C18.66 20.4643 18.3964 20.4734 16.1735 20.4734C13.9474 20.4734 13.6838 20.4643 12.8083 20.4278C11.9946 20.3944 11.5553 20.2667 11.2624 20.1603C10.8751 20.0205 10.5952 19.8503 10.3055 19.5798C10.0126 19.3062 9.8336 19.0478 9.68389 18.6861C9.56998 18.4125 9.43329 17.9991 9.39749 17.2423C9.35843 16.4215 9.34867 16.1753 9.34867 14.0992C9.34867 12.0201 9.35843 11.7739 9.39749 10.9562C9.43329 10.1963 9.56998 9.78597 9.68389 9.5124C9.8336 9.15068 10.0159 8.88927 10.3055 8.61874C10.5984 8.34517 10.8751 8.17799 11.2624 8.03816C11.5553 7.93177 11.9979 7.80411 12.8083 7.77067C13.6838 7.73419 13.9474 7.72508 16.1735 7.72508ZM16.1735 6.32379C13.9116 6.32379 13.6285 6.33291 12.7399 6.36939C11.8547 6.40586 11.2461 6.53961 10.7189 6.73111C10.1688 6.93172 9.70342 7.19617 9.24127 7.63085C8.77586 8.06248 8.49271 8.49715 8.27791 9.00781C8.07287 9.50328 7.92967 10.0687 7.89062 10.8954C7.85156 11.7283 7.8418 11.9928 7.8418 14.1053C7.8418 16.2179 7.85156 16.4823 7.89062 17.3122C7.92967 18.139 8.07287 18.7074 8.27791 19.1998C8.49271 19.7135 8.77586 20.1482 9.24127 20.5798C9.70342 21.0114 10.1688 21.2789 10.7156 21.4765C11.2461 21.668 11.8514 21.8017 12.7367 21.8382C13.6252 21.8747 13.9083 21.8838 16.1703 21.8838C18.4322 21.8838 18.7154 21.8747 19.6039 21.8382C20.4891 21.8017 21.0977 21.668 21.625 21.4765C22.1717 21.2789 22.6371 21.0114 23.0993 20.5798C23.5614 20.1482 23.8479 19.7135 24.0594 19.2028C24.2644 18.7074 24.4076 18.142 24.4467 17.3152C24.4858 16.4854 24.4955 16.2209 24.4955 14.1084C24.4955 11.9958 24.4858 11.7314 24.4467 10.9015C24.4076 10.0747 24.2644 9.50632 24.0594 9.01389C23.8544 8.49715 23.5712 8.06248 23.1058 7.63085C22.6437 7.19921 22.1783 6.93172 21.6315 6.73415C21.101 6.54265 20.4956 6.4089 19.6104 6.37243C18.7186 6.33291 18.4355 6.32379 16.1735 6.32379Z" fill="white"/>
<path d="M16.1733 10.1082C13.8105 10.1082 11.8936 11.8985 11.8936 14.1053C11.8936 16.3121 13.8105 18.1025 16.1733 18.1025C18.5362 18.1025 20.4531 16.3121 20.4531 14.1053C20.4531 11.8985 18.5362 10.1082 16.1733 10.1082ZM16.1733 16.6982C14.6404 16.6982 13.3972 15.537 13.3972 14.1053C13.3972 12.6736 14.6404 11.5125 16.1733 11.5125C17.7062 11.5125 18.9495 12.6736 18.9495 14.1053C18.9495 15.537 17.7062 16.6982 16.1733 16.6982Z" fill="white"/>
<path d="M21.6219 9.95008C21.6219 10.4668 21.1727 10.8833 20.6227 10.8833C20.0694 10.8833 19.6235 10.4638 19.6235 9.95008C19.6235 9.43334 20.0727 9.01691 20.6227 9.01691C21.1727 9.01691 21.6219 9.43638 21.6219 9.95008Z" fill="white"/>
</g>
<defs>
<clipPath id="clip0_2339_346">
<rect x="7.8418" y="6.32379" width="16.6635" height="15.5631" rx="7" fill="white"/>
</clipPath>
</defs>
</svg>
