<svg width="33" height="33" viewBox="0 0 33 33" fill="none" xmlns="http://www.w3.org/2000/svg">
<circle cx="16.5" cy="16.5" r="16.5" fill="#CC7D45"/>
<g clip-path="url(#clip0_1546_164)">
<path d="M16.5 9.53066C18.7711 9.53066 19.04 9.54062 19.9332 9.58047C20.7633 9.61699 21.2115 9.75645 21.5104 9.87266C21.9055 10.0254 22.191 10.2113 22.4865 10.5068C22.7854 10.8057 22.968 11.0879 23.1207 11.483C23.2369 11.7818 23.3764 12.2334 23.4129 13.0602C23.4527 13.9566 23.4627 14.2256 23.4627 16.4934C23.4627 18.7645 23.4527 19.0334 23.4129 19.9266C23.3764 20.7566 23.2369 21.2049 23.1207 21.5037C22.968 21.8988 22.782 22.1844 22.4865 22.4799C22.1877 22.7787 21.9055 22.9613 21.5104 23.1141C21.2115 23.2303 20.76 23.3697 19.9332 23.4062C19.0367 23.4461 18.7678 23.4561 16.5 23.4561C14.2289 23.4561 13.96 23.4461 13.0668 23.4062C12.2367 23.3697 11.7885 23.2303 11.4896 23.1141C11.0945 22.9613 10.809 22.7754 10.5135 22.4799C10.2146 22.1811 10.032 21.8988 9.8793 21.5037C9.76309 21.2049 9.62363 20.7533 9.58711 19.9266C9.54727 19.0301 9.5373 18.7611 9.5373 16.4934C9.5373 14.2223 9.54727 13.9533 9.58711 13.0602C9.62363 12.2301 9.76309 11.7818 9.8793 11.483C10.032 11.0879 10.218 10.8023 10.5135 10.5068C10.8123 10.208 11.0945 10.0254 11.4896 9.87266C11.7885 9.75645 12.24 9.61699 13.0668 9.58047C13.96 9.54062 14.2289 9.53066 16.5 9.53066ZM16.5 8C14.1924 8 13.9035 8.00996 12.9971 8.0498C12.0939 8.08965 11.473 8.23574 10.9352 8.44492C10.374 8.66406 9.89922 8.95293 9.42773 9.42773C8.95293 9.89922 8.66406 10.374 8.44492 10.9318C8.23574 11.473 8.08965 12.0906 8.0498 12.9937C8.00996 13.9035 8 14.1924 8 16.5C8 18.8076 8.00996 19.0965 8.0498 20.0029C8.08965 20.9061 8.23574 21.527 8.44492 22.0648C8.66406 22.626 8.95293 23.1008 9.42773 23.5723C9.89922 24.0437 10.374 24.3359 10.9318 24.5518C11.473 24.7609 12.0906 24.907 12.9938 24.9469C13.9002 24.9867 14.1891 24.9967 16.4967 24.9967C18.8043 24.9967 19.0932 24.9867 19.9996 24.9469C20.9027 24.907 21.5236 24.7609 22.0615 24.5518C22.6193 24.3359 23.0941 24.0437 23.5656 23.5723C24.0371 23.1008 24.3293 22.626 24.5451 22.0682C24.7543 21.527 24.9004 20.9094 24.9402 20.0063C24.9801 19.0998 24.99 18.8109 24.99 16.5033C24.99 14.1957 24.9801 13.9068 24.9402 13.0004C24.9004 12.0973 24.7543 11.4764 24.5451 10.9385C24.3359 10.374 24.0471 9.89922 23.5723 9.42773C23.1008 8.95625 22.626 8.66406 22.0682 8.44824C21.527 8.23906 20.9094 8.09297 20.0063 8.05313C19.0965 8.00996 18.8076 8 16.5 8Z" fill="white"/>
<path d="M16.5 12.1338C14.0895 12.1338 12.1338 14.0895 12.1338 16.5C12.1338 18.9105 14.0895 20.8662 16.5 20.8662C18.9105 20.8662 20.8662 18.9105 20.8662 16.5C20.8662 14.0895 18.9105 12.1338 16.5 12.1338ZM16.5 19.3322C14.9361 19.3322 13.6678 18.0639 13.6678 16.5C13.6678 14.9361 14.9361 13.6678 16.5 13.6678C18.0639 13.6678 19.3322 14.9361 19.3322 16.5C19.3322 18.0639 18.0639 19.3322 16.5 19.3322Z" fill="white"/>
<path d="M22.0582 11.9611C22.0582 12.5256 21.6 12.9804 21.0389 12.9804C20.4744 12.9804 20.0195 12.5222 20.0195 11.9611C20.0195 11.3967 20.4777 10.9418 21.0389 10.9418C21.6 10.9418 22.0582 11.4 22.0582 11.9611Z" fill="white"/>
</g>
<defs>
<clipPath id="clip0_1546_164">
<rect width="17" height="17" fill="white" transform="translate(8 8)"/>
</clipPath>
</defs>
</svg>
