<svg width="150" height="150" viewBox="0 0 150 150" fill="none" xmlns="http://www.w3.org/2000/svg">
<path d="M15.2063 56.5298H5V63.6201H15.2063V56.5298Z" fill="#00C7FD"/>
<path d="M14.9517 93.4701V67.9097H5.25391V93.4449H14.9517V93.4701ZM79.1682 93.7224V87.4648C77.7516 87.4648 76.553 87.4143 75.6813 87.3134C74.6643 87.2125 73.9016 86.9602 73.3931 86.6069C72.8846 86.2537 72.5577 85.749 72.3761 85.0677C72.2308 84.4369 72.1581 83.6042 72.1581 82.595V73.6879H79.1682V67.9097H72.1581V57.9681H62.4603V82.6707C62.4603 84.7649 62.7145 86.5312 63.223 87.9442C63.7315 89.332 64.6033 90.4675 65.8019 91.3254C67.0005 92.1833 68.5986 92.7888 70.5237 93.1673C72.485 93.5458 74.9549 93.7224 77.8969 93.7224H79.1682ZM134.667 93.4701V56H124.97V93.4701H134.667ZM53.1257 70.4329C50.4379 68.4143 46.6604 67.405 41.866 67.405C39.5414 67.405 37.3984 67.7331 35.5097 68.3891C33.5847 69.0452 31.9865 69.9535 30.679 71.1142L30.1705 71.5936V71.1647V67.9097H20.6179V93.4449H30.2431V79.8446V80.7782C30.2431 80.6268 30.2431 80.4754 30.2431 80.324C30.3521 77.927 31.1875 76.1607 32.7856 75.0252C34.4927 73.8141 36.563 73.2085 38.9239 73.2085C41.7207 73.2085 43.8637 73.8141 45.2802 74.9748C46.6604 76.1355 47.3869 77.7756 47.3869 79.8699V79.9456V93.4449H57.1573V78.9615C57.1937 75.328 55.8134 72.4515 53.1257 70.4329ZM119.957 80.6521C119.957 78.8101 119.485 77.0943 118.577 75.4794C117.633 73.8898 116.325 72.4768 114.691 71.2656C113.02 70.0544 111.022 69.1209 108.698 68.4396C106.373 67.7583 103.794 67.4303 100.997 67.4303C98.3459 67.4303 95.8397 67.7835 93.5152 68.4648C91.1906 69.1713 89.1566 70.1049 87.4495 71.2908C85.7424 72.4768 84.3622 73.8898 83.3815 75.5047C82.3645 77.1195 81.8923 78.8606 81.8923 80.7025C81.8923 82.5445 82.3645 84.2855 83.3088 85.9004C84.2532 87.5153 85.5971 88.9283 87.2679 90.1142C88.9387 91.3001 91.009 92.259 93.4062 92.9402C95.8034 93.6467 98.4549 94 101.288 94C109.497 94 114.582 91.4011 117.633 88.9788L110.659 85.2948C109.206 86.506 105.719 88.1461 101.361 88.1461C98.6365 88.1461 96.3846 87.7171 94.6775 86.834C92.9703 85.9761 91.8081 84.7649 91.1906 83.2762L91.0816 83.0491H119.957V80.6521ZM91.1543 78.3054C91.1543 76.4382 94.2416 73.1833 100.888 73.158C107.535 73.158 110.659 76.413 110.659 78.2802L91.1543 78.3054ZM145.709 90.2404C145.528 89.9376 145.273 89.6853 144.946 89.4582C144.62 89.2311 144.256 89.0545 143.82 88.9283C143.385 88.8021 142.912 88.7264 142.44 88.7264C141.932 88.7264 141.496 88.8021 141.06 88.9283C140.624 89.0545 140.261 89.2311 139.934 89.4582C139.607 89.6853 139.353 89.9376 139.171 90.2404C138.99 90.5432 138.881 90.8712 138.881 91.1992C138.881 91.5525 138.99 91.8552 139.171 92.158C139.353 92.4608 139.607 92.7131 139.934 92.9402C140.261 93.1673 140.624 93.344 141.06 93.4701C141.496 93.5963 141.968 93.672 142.44 93.672C142.949 93.672 143.385 93.5963 143.82 93.4701C144.256 93.344 144.62 93.1673 144.946 92.9402C145.273 92.7131 145.528 92.4608 145.709 92.158C145.891 91.8552 146 91.5272 146 91.1992C146 90.8712 145.891 90.5432 145.709 90.2404ZM145.128 92.0066C144.983 92.259 144.765 92.4861 144.511 92.6627C144.256 92.8393 143.929 92.9907 143.566 93.0916C143.203 93.1926 142.84 93.243 142.404 93.243C142.004 93.243 141.605 93.1926 141.242 93.0916C140.878 92.9907 140.552 92.8393 140.297 92.6627C140.043 92.4861 139.825 92.259 139.68 92.0066C139.535 91.7543 139.462 91.502 139.462 91.1992C139.462 90.9216 139.535 90.6441 139.68 90.3918C139.825 90.1394 140.043 89.9123 140.297 89.7357C140.552 89.5591 140.878 89.4077 141.242 89.3068C141.605 89.2058 141.968 89.1554 142.404 89.1554C142.803 89.1554 143.203 89.2058 143.566 89.3068C143.929 89.4077 144.256 89.5591 144.511 89.7357C144.765 89.9123 144.983 90.1394 145.128 90.3918C145.273 90.6441 145.346 90.8964 145.346 91.1992C145.346 91.502 145.273 91.7543 145.128 92.0066ZM143.094 91.4263C143.385 91.4011 143.603 91.3254 143.784 91.1992C143.966 91.073 144.075 90.8964 144.075 90.6441C144.075 90.3665 143.966 90.1647 143.711 90.0133C143.494 89.8619 143.094 89.7862 142.622 89.7862H141.024V92.6375H141.786V91.4768H142.331L143.348 92.6375H144.147L143.094 91.4263ZM142.694 90.9973C142.586 90.9973 142.477 90.9973 142.331 90.9973H141.786V90.1899H142.331C142.44 90.1899 142.549 90.1899 142.694 90.1899C142.803 90.1899 142.912 90.2151 143.021 90.2404C143.13 90.2656 143.203 90.3161 143.239 90.3665C143.312 90.417 143.312 90.4927 143.312 90.5936C143.312 90.6946 143.276 90.7703 143.239 90.8207C143.167 90.8712 143.094 90.9216 143.021 90.9469C142.912 90.9721 142.803 90.9973 142.694 90.9973Z" fill="white"/>
</svg>
