<svg width="33" height="33" viewBox="0 0 33 33" fill="none" xmlns="http://www.w3.org/2000/svg">
<circle cx="16.5" cy="16.5" r="16.5" fill="#CC7D45"/>
<g clip-path="url(#clip0_1546_173)">
<path d="M23.7416 9.00024H9.25508C8.56113 9.00024 8 9.48364 8 10.0813V22.9163C8 23.5139 8.56113 24.0002 9.25508 24.0002H23.7416C24.4355 24.0002 25 23.5139 25 22.9192V10.0813C25 9.48364 24.4355 9.00024 23.7416 9.00024ZM13.0436 21.7825H10.5201V14.6223H13.0436V21.7825ZM11.7818 13.6467C10.9717 13.6467 10.3176 13.0696 10.3176 12.3577C10.3176 11.6458 10.9717 11.0686 11.7818 11.0686C12.5887 11.0686 13.2428 11.6458 13.2428 12.3577C13.2428 13.0667 12.5887 13.6467 11.7818 13.6467ZM22.4865 21.7825H19.9664V18.302C19.9664 17.4729 19.9498 16.4036 18.6549 16.4036C17.3434 16.4036 17.1441 17.3088 17.1441 18.2434V21.7825H14.6273V14.6223H17.0445V15.6008H17.0777C17.4131 15.0383 18.2365 14.4436 19.4617 14.4436C22.015 14.4436 22.4865 15.926 22.4865 17.8538V21.7825Z" fill="white"/>
</g>
<defs>
<clipPath id="clip0_1546_173">
<rect width="17" height="15" fill="white" transform="translate(8 9.00024)"/>
</clipPath>
</defs>
</svg>
