<svg width="52" height="52" viewBox="0 0 52 52" fill="none" xmlns="http://www.w3.org/2000/svg">
<path d="M51.4583 0H17.5175C17.3738 0 17.2361 0.0570684 17.1345 0.158651C17.0329 0.260233 16.9758 0.398008 16.9758 0.541667V8.37958H9.1325C8.98884 8.37958 8.85107 8.43665 8.74948 8.53823C8.6479 8.63982 8.59083 8.77759 8.59083 8.92125V16.9704H0.541667C0.398008 16.9704 0.260233 17.0275 0.158651 17.1291C0.0570684 17.2306 0 17.3684 0 17.5121V51.4583C0 51.602 0.0570684 51.7398 0.158651 51.8413C0.260233 51.9429 0.398008 52 0.541667 52H34.4879C34.6316 52 34.7693 51.9429 34.8709 51.8413C34.9725 51.7398 35.0296 51.602 35.0296 51.4583V43.4092H43.0787C43.2224 43.4092 43.3602 43.3521 43.4618 43.2505C43.5633 43.1489 43.6204 43.0112 43.6204 42.8675V35.0242H51.4583C51.602 35.0242 51.7398 34.9671 51.8413 34.8655C51.9429 34.7639 52 34.6262 52 34.4825V0.541667C52 0.398008 51.9429 0.260233 51.8413 0.158651C51.7398 0.0570684 51.602 0 51.4583 0ZM33.9462 50.9167H1.08333V18.0537H33.9462V50.9167ZM42.5371 42.3258H35.0296V17.5121C35.0296 17.3684 34.9725 17.2306 34.8709 17.1291C34.7693 17.0275 34.6316 16.9704 34.4879 16.9704H9.67417V9.46292H42.5371V42.3258ZM50.9167 33.9408H43.6204V8.92125C43.6204 8.77759 43.5633 8.63982 43.4618 8.53823C43.3602 8.43665 43.2224 8.37958 43.0787 8.37958H18.0592V1.08333H50.9167V33.9408Z" fill="#7F7047"/>
<path d="M9.50699 23.9058C9.60849 23.8063 9.66551 23.6714 9.66551 23.5307C9.66551 23.39 9.60849 23.2551 9.50699 23.1556C9.40548 23.0561 9.26782 23.0002 9.12427 23.0002H5.54124C5.3977 23.0002 5.26003 23.0561 5.15853 23.1556C5.05702 23.2551 5 23.39 5 23.5307C5 23.6714 5.05702 23.8063 5.15853 23.9058C5.26003 24.0052 5.3977 24.0611 5.54124 24.0611H9.12427C9.26782 24.0611 9.40548 24.0052 9.50699 23.9058Z" fill="#CC7D45"/>
<path d="M19.6769 23.9058C19.7784 23.8063 19.8355 23.6714 19.8355 23.5307C19.8355 23.4597 19.821 23.3894 19.7928 23.3239C19.7646 23.2585 19.7232 23.1993 19.6712 23.1499C19.6192 23.1004 19.5577 23.0617 19.4901 23.036C19.4225 23.0103 19.3504 22.9981 19.278 23.0002H15.695C15.5514 23.0002 15.4137 23.0561 15.3122 23.1556C15.2107 23.2551 15.1537 23.39 15.1537 23.5307C15.1537 23.6714 15.2107 23.8063 15.3122 23.9058C15.4137 24.0052 15.5514 24.0611 15.695 24.0611H19.2942C19.4378 24.0611 19.5754 24.0052 19.6769 23.9058Z" fill="#CC7D45"/>
<path d="M29.8415 23.9058C29.943 23.8063 30 23.6714 30 23.5307C30 23.39 29.943 23.2551 29.8415 23.1556C29.74 23.0561 29.6023 23.0002 29.4588 23.0002H25.8757C25.7322 23.0002 25.5945 23.0561 25.493 23.1556C25.3915 23.2551 25.3345 23.39 25.3345 23.5307C25.3345 23.6714 25.3915 23.8063 25.493 23.9058C25.5945 24.0052 25.7322 24.0611 25.8757 24.0611H29.4588C29.6023 24.0611 29.74 24.0052 29.8415 23.9058Z" fill="#CC7D45"/>
<path d="M14.5893 29.2579C14.6908 29.1584 14.7478 29.0235 14.7478 28.8828C14.7478 28.7421 14.6908 28.6072 14.5893 28.5077C14.4878 28.4082 14.3501 28.3524 14.2065 28.3524H10.6235C10.48 28.3524 10.3423 28.4082 10.2408 28.5077C10.1393 28.6072 10.0823 28.7421 10.0823 28.8828C10.0823 29.0235 10.1393 29.1584 10.2408 29.2579C10.3423 29.3573 10.48 29.4132 10.6235 29.4132H14.2065C14.3501 29.4132 14.4878 29.3573 14.5893 29.2579Z" fill="#CC7D45"/>
<path d="M24.7592 29.2579C24.8607 29.1584 24.9177 29.0235 24.9177 28.8828H24.8961C24.8961 28.7421 24.8391 28.6072 24.7376 28.5077C24.6361 28.4082 24.4984 28.3524 24.3548 28.3524H20.7935C20.6499 28.3524 20.5122 28.4082 20.4107 28.5077C20.3092 28.6072 20.2522 28.7421 20.2522 28.8828C20.2522 29.0235 20.3092 29.1584 20.4107 29.2579C20.5122 29.3573 20.6499 29.4132 20.7935 29.4132H24.3765C24.52 29.4132 24.6577 29.3573 24.7592 29.2579Z" fill="#CC7D45"/>
<path d="M9.50699 34.8699C9.60849 34.7704 9.66551 34.6355 9.66551 34.4948C9.66551 34.3541 9.60849 34.2192 9.50699 34.1197C9.40548 34.0203 9.26782 33.9644 9.12427 33.9644H5.54124C5.3977 33.9644 5.26003 34.0203 5.15853 34.1197C5.05702 34.2192 5 34.3541 5 34.4948C5 34.6355 5.05702 34.7704 5.15853 34.8699C5.26003 34.9694 5.3977 35.0253 5.54124 35.0253H9.12427C9.26782 35.0253 9.40548 34.9694 9.50699 34.8699Z" fill="#CC7D45"/>
<path d="M19.6769 34.8699C19.7784 34.7704 19.8355 34.6355 19.8355 34.4948C19.8355 34.4238 19.821 34.3535 19.7928 34.2881C19.7646 34.2227 19.7232 34.1635 19.6712 34.114C19.6192 34.0645 19.5577 34.0258 19.4901 34.0001C19.4225 33.9744 19.3504 33.9622 19.278 33.9644H15.695C15.5514 33.9644 15.4137 34.0203 15.3122 34.1197C15.2107 34.2192 15.1537 34.3541 15.1537 34.4948C15.1537 34.6355 15.2107 34.7704 15.3122 34.8699C15.4137 34.9694 15.5514 35.0253 15.695 35.0253H19.2942C19.4378 35.0253 19.5754 34.9694 19.6769 34.8699Z" fill="#CC7D45"/>
<path d="M29.8415 34.8699C29.943 34.7704 30 34.6355 30 34.4948C30 34.3541 29.943 34.2192 29.8415 34.1197C29.74 34.0203 29.6023 33.9644 29.4588 33.9644H25.8757C25.7322 33.9644 25.5945 34.0203 25.493 34.1197C25.3915 34.2192 25.3345 34.3541 25.3345 34.4948C25.3345 34.6355 25.3915 34.7704 25.493 34.8699C25.5945 34.9694 25.7322 35.0253 25.8757 35.0253H29.4588C29.6023 35.0253 29.74 34.9694 29.8415 34.8699Z" fill="#CC7D45"/>
<path d="M14.5893 40.2379C14.6908 40.1384 14.7478 40.0035 14.7478 39.8628C14.7478 39.7222 14.6908 39.5872 14.5893 39.4878C14.4878 39.3883 14.3501 39.3324 14.2065 39.3324H10.6235C10.48 39.3324 10.3423 39.3883 10.2408 39.4878C10.1393 39.5872 10.0823 39.7222 10.0823 39.8628C10.0823 40.0035 10.1393 40.1384 10.2408 40.2379C10.3423 40.3374 10.48 40.3933 10.6235 40.3933H14.2065C14.3501 40.3933 14.4878 40.3374 14.5893 40.2379Z" fill="#CC7D45"/>
<path d="M24.7592 40.2379C24.8607 40.1384 24.9177 40.0035 24.9177 39.8628H24.8961C24.8961 39.7222 24.8391 39.5872 24.7376 39.4878C24.6361 39.3883 24.4984 39.3324 24.3548 39.3324H20.7935C20.6499 39.3324 20.5122 39.3883 20.4107 39.4878C20.3092 39.5872 20.2522 39.7222 20.2522 39.8628C20.2522 40.0035 20.3092 40.1384 20.4107 40.2379C20.5122 40.3374 20.6499 40.3933 20.7935 40.3933H24.3765C24.52 40.3933 24.6577 40.3374 24.7592 40.2379Z" fill="#CC7D45"/>
<path d="M9.50699 45.8446C9.60849 45.7452 9.66551 45.6102 9.66551 45.4696C9.66551 45.3289 9.60849 45.194 9.50699 45.0945C9.40548 44.995 9.26782 44.9391 9.12427 44.9391H5.54124C5.3977 44.9391 5.26003 44.995 5.15853 45.0945C5.05702 45.194 5 45.3289 5 45.4696C5 45.6102 5.05702 45.7452 5.15853 45.8446C5.26003 45.9441 5.3977 46 5.54124 46H9.12427C9.26782 46 9.40548 45.9441 9.50699 45.8446Z" fill="#CC7D45"/>
<path d="M19.6769 45.8446C19.7784 45.7452 19.8355 45.6102 19.8355 45.4696C19.8355 45.3985 19.821 45.3282 19.7928 45.2628C19.7646 45.1974 19.7232 45.1382 19.6712 45.0887C19.6192 45.0393 19.5577 45.0005 19.4901 44.9748C19.4225 44.9491 19.3504 44.937 19.278 44.9391H15.695C15.5514 44.9391 15.4137 44.995 15.3122 45.0945C15.2107 45.194 15.1537 45.3289 15.1537 45.4696C15.1537 45.6102 15.2107 45.7452 15.3122 45.8446C15.4137 45.9441 15.5514 46 15.695 46H19.2942C19.4378 46 19.5754 45.9441 19.6769 45.8446Z" fill="#CC7D45"/>
<path d="M29.8415 45.8446C29.943 45.7452 30 45.6102 30 45.4696C30 45.3289 29.943 45.194 29.8415 45.0945C29.74 44.995 29.6023 44.9391 29.4588 44.9391H25.8757C25.7322 44.9391 25.5945 44.995 25.493 45.0945C25.3915 45.194 25.3345 45.3289 25.3345 45.4696C25.3345 45.6102 25.3915 45.7452 25.493 45.8446C25.5945 45.9441 25.7322 46 25.8757 46H29.4588C29.6023 46 29.74 45.9441 29.8415 45.8446Z" fill="#CC7D45"/>
</svg>
