<svg width="150" height="150" viewBox="0 0 150 150" fill="none" xmlns="http://www.w3.org/2000/svg">
<mask id="mask0_2400_65" style="mask-type:luminance" maskUnits="userSpaceOnUse" x="5" y="57" width="140" height="35">
<path d="M145 57H5V92H145V57Z" fill="white"/>
</mask>
<g mask="url(#mask0_2400_65)">
<path d="M68.6532 64.7171C66.7903 64.7171 64.9928 65.6355 63.5916 67.3019L63.2535 67.7038V65.2196C63.2186 65.2196 63.1813 65.2196 63.1463 65.2196C61.4024 65.2196 59.5256 66.3947 59.5256 68.9739V92.002H63.2535V76.5885C63.2535 74.2383 63.6942 68.7757 67.7672 68.7757C70.959 68.7757 72.4113 71.8852 72.4113 74.777C72.4113 77.6687 70.8168 80.848 67.7672 80.848C67.0375 80.848 65.3309 80.7056 64.368 79.458C64.1325 80.3009 64.1628 81.6045 64.692 82.707C65.1513 83.6672 66.1562 84.8312 68.3198 84.9289C68.3873 84.9289 68.455 84.9316 68.5249 84.9316C70.4529 84.9316 72.3768 83.8989 73.803 82.0985C75.3094 80.1977 76.137 77.6324 76.137 74.8719C76.137 68.2816 72.2835 64.7256 68.6555 64.7256L68.6532 64.7171ZM50.1532 64.7171C48.2904 64.7171 46.4929 65.6355 45.0893 67.3019L44.7513 67.7038V65.2196C44.7163 65.2196 44.679 65.2196 44.6441 65.2196C42.9002 65.2196 41.0233 66.3947 41.0233 68.9739V92.002H44.7513V76.5885C44.7513 74.2383 45.1919 68.7757 49.265 68.7757C52.4567 68.7757 53.9115 71.8852 53.9115 74.777C53.9115 77.6687 52.3144 80.848 49.265 80.848C48.5352 80.848 46.8263 80.7056 45.8657 79.458C45.6302 80.3009 45.6606 81.6017 46.1875 82.7043C46.6467 83.6645 47.6516 84.8284 49.8152 84.9261C49.8828 84.9261 49.9504 84.9289 50.018 84.9289C51.9461 84.9289 53.8695 83.8961 55.2964 82.0957C56.8025 80.1949 57.6325 77.6296 57.6325 74.869C57.6325 68.2789 53.7786 64.7228 50.1509 64.7228L50.1532 64.7171ZM33.4112 73.6074C32.9333 73.6632 32.3621 73.7247 31.7839 73.7247C30.4573 73.7247 29.4315 73.3981 28.6597 72.7282C28.366 73.7832 28.4383 74.7435 28.8742 75.5139C29.5084 76.6387 30.8559 77.2835 32.5719 77.2835C33.3482 77.2835 34.1782 77.1523 35.0409 76.8955C38.3585 75.9158 39.2677 72.9543 39.0416 70.7156C38.7455 67.796 36.4817 64.6558 32.2105 64.6558C29.597 64.6558 27.3448 65.7025 25.8667 67.6033C23.5259 70.5397 22.8685 75.3101 24.2603 79.2095C25.5682 82.8661 28.3357 84.9624 31.8585 84.9624C34.9546 84.9624 37.1508 83.6812 38.7572 80.9317L35.7357 79.1732C34.6865 80.393 33.269 81.0909 31.8235 81.0909C31.5111 81.0909 31.201 81.0574 30.8979 80.9932C28.6761 80.5438 27.0511 77.7748 27.1233 74.5536C27.1863 71.1455 29.2729 68.4463 31.9774 68.2789C32.0637 68.2732 32.1476 68.2704 32.2315 68.2704C34.2878 68.2704 35.7823 69.9145 35.8336 71.3911C35.8778 72.6193 34.971 73.4483 33.4089 73.6102L33.4112 73.6074ZM14.1279 64.7171C12.2651 64.7171 10.4676 65.6355 9.06406 67.3019L8.72601 67.7038V65.2196C8.69103 65.2196 8.65373 65.2196 8.61876 65.2196C6.87485 65.2196 4.99805 66.3947 4.99805 68.9739V92.002H8.72601V76.5885C8.72601 74.2383 9.16665 68.7757 13.2397 68.7757C16.4314 68.7757 17.8839 71.8852 17.8839 74.777C17.8839 77.6687 16.2892 80.848 13.2397 80.848C12.5099 80.848 10.801 80.7056 9.84043 79.458C9.60496 80.3009 9.63526 81.6045 10.1622 82.707C10.6238 83.6672 11.6263 84.8312 13.7899 84.9289C13.8575 84.9289 13.9251 84.9316 13.9951 84.9316C15.9231 84.9316 17.8466 83.8989 19.2734 82.0985C20.7795 80.1977 21.6095 77.6324 21.6095 74.8719C21.6095 68.2816 17.7556 64.7256 14.1279 64.7256V64.7171ZM102.445 64.6418C102.354 64.6418 102.263 64.6446 102.17 64.653C100.897 64.7256 99.7707 65.7639 99.0761 67.5057L98.6985 68.4491V65.1135H95.5135V84.5409H99.2718V76.742C99.2718 75.7316 99.2718 74.4755 99.337 73.2446C99.547 70.3946 101.368 68.8623 102.974 68.8623C103.841 68.8623 104.534 69.3116 104.881 70.082C105.502 69.3647 105.706 68.1784 105.39 67.0256C104.979 65.535 103.877 64.6446 102.442 64.6446L102.445 64.6418ZM87.9017 73.6074C87.4236 73.6632 86.8524 73.7247 86.2739 73.7247C84.9475 73.7247 83.9216 73.3981 83.1502 72.7282C82.856 73.7832 82.9284 74.7435 83.3647 75.5139C83.9986 76.6387 85.3459 77.2835 87.0624 77.2835C87.8384 77.2835 88.6686 77.1523 89.5314 76.8955C92.8488 75.9158 93.7605 72.9543 93.5316 70.7156C93.2355 67.796 90.9719 64.6558 86.7011 64.6558C84.0873 64.6558 81.8348 65.7025 80.357 67.6033C78.0165 70.5397 77.3565 75.3101 78.7508 79.2067C80.0564 82.8633 82.826 84.9596 86.3489 84.9596C89.4427 84.9596 91.641 83.6783 93.2473 80.9289L90.2259 79.1705C89.1766 80.3902 87.7615 81.0881 86.3137 81.0881C86.0013 81.0881 85.6916 81.0546 85.3883 80.9904C83.1665 80.541 81.5413 77.772 81.6111 74.5509C81.6744 71.1427 83.7606 68.4435 86.465 68.276C86.5517 68.2704 86.6352 68.2677 86.7193 68.2677C88.7755 68.2677 90.2676 69.9118 90.3218 71.3884C90.3661 72.6165 89.459 73.4455 87.8971 73.6074H87.9017ZM136.043 84.82C136.171 84.82 136.302 84.8144 136.43 84.8061C138.48 84.647 139.687 83.8766 140.119 82.4474C140.629 80.6443 140.035 79.2821 139.527 78.7239C139.519 79.19 139.398 79.5919 139.165 79.9213C138.76 80.4963 138.041 80.8006 137.092 80.8006C135.868 80.8006 134.954 79.8431 134.59 78.1767C134.244 76.6332 134.29 70.4672 134.318 66.7799C134.322 66.1379 134.327 65.5797 134.327 65.1498H130.665V77.8837C130.665 80.072 131.117 81.6966 132.047 82.8466C133.096 84.1361 134.479 84.8173 136.045 84.8173L136.043 84.82ZM141.275 65.1498C141.275 67.1037 141.291 80.5075 141.291 82.0957C141.291 85.769 139.632 87.7146 136.353 87.882C136.283 87.882 136.214 87.8848 136.146 87.8848C134.321 87.8848 131.958 86.9526 130.793 84.9177C130.445 86.7293 130.648 88.2561 131.402 89.4564C132.397 91.0474 134.362 91.9602 136.791 91.9602C142.009 91.9602 145.001 88.4627 145.001 82.3637V65.1526H141.272L141.275 65.1498ZM125.62 64.639C125.528 64.639 125.438 64.6418 125.344 64.6501C124.073 64.7228 122.945 65.7611 122.251 67.5028L121.873 68.4463V65.1107H118.688V84.5381H122.446V76.7392C122.446 75.7288 122.446 74.4727 122.512 73.2418C122.722 70.3919 124.542 68.8594 126.149 68.8594C127.016 68.8594 127.708 69.3089 128.056 70.0792C128.676 69.3619 128.881 68.1756 128.564 67.0228C128.151 65.5322 127.051 64.6418 125.617 64.6418L125.62 64.639ZM114.354 60.653C115.151 60.653 116.112 61.175 116.562 62.1743C117.219 61.1806 117.392 60.1925 117.061 59.2965C116.55 57.9204 114.909 56.9937 112.978 56.9937C112.911 56.9937 112.843 56.9937 112.776 56.9964C111.33 57.0634 110.341 57.5128 109.759 58.3642C108.905 59.6119 108.92 61.7193 108.936 63.9496C108.938 64.2677 108.94 64.5888 108.94 64.9097V65.147H107.472V68.9208H108.94V84.5325H112.701V68.9208H113.858C115.498 68.9208 116.706 67.3465 116.788 65.147H112.701V62.6153C112.701 61.4234 113.349 60.653 114.354 60.653Z" fill="url(#paint0_linear_2400_65)"/>
</g>
<defs>
<linearGradient id="paint0_linear_2400_65" x1="5.00038" y1="74.5006" x2="145.001" y2="74.5006" gradientUnits="userSpaceOnUse">
<stop stop-color="#BE1E2D"/>
<stop offset="1" stop-color="#F26522"/>
</linearGradient>
</defs>
</svg>
