<svg width="33" height="33" viewBox="0 0 33 33" fill="none" xmlns="http://www.w3.org/2000/svg">
<path d="M29 18.5C31.1667 19.5 31.75 21.0833 30.75 23.25C29.75 25.25 28.1667 25.75 26 24.75L18.5 19.5L20 28.75C20 29.5833 19.5833 30.4167 18.75 31.25C18.0833 31.9167 17.25 32.25 16.25 32.25C15.4167 32.25 14.6667 31.9167 14 31.25C13.3333 30.4167 13 29.5833 13 28.75L14.25 20.25L8 26C6 27.1667 4.33333 26.8333 3 25C1.83333 23 2.25 21.3333 4.25 20L12 16.75L3.75 14.25C1.58333 13.25 1 11.75 2 9.74999C3 7.58332 4.58333 6.99999 6.75 8L14.5 13.25L13 3.99999C13 3.16666 13.3333 2.41666 14 1.74999C14.6667 0.916657 15.5 0.49999 16.5 0.49999C16.8333 0.49999 17.25 0.583323 17.75 0.749987C18.25 0.916662 18.5833 1.16666 18.75 1.49999C19.0833 1.83332 19.3333 2.24999 19.5 2.74999C19.8333 3.08332 20 3.49999 20 3.99999L18.5 12.5L25 6.74998C26.8333 5.58332 28.3333 5.99999 29.5 8C30.8333 9.83333 30.5833 11.4167 28.75 12.75L20.75 16L29 18.5Z" fill="#7F7047"/>
</svg>
