<svg width="7" height="76" viewBox="0 0 7 76" fill="none" xmlns="http://www.w3.org/2000/svg">
<path d="M3.5 75.5L6.38675 70.5H0.613249L3.5 75.5ZM3 0V0.993421H4V0H3ZM3 2.98026V4.96711H4V2.98026H3ZM3 6.95395V8.94079H4V6.95395H3ZM3 10.9276V12.9145H4V10.9276H3ZM3 14.9013V16.8882H4V14.9013H3ZM3 18.875V20.8618H4V18.875H3ZM3 22.8487V24.8355H4V22.8487H3ZM3 26.8224V28.8092H4V26.8224H3ZM3 30.7961V32.7829H4V30.7961H3ZM3 34.7697V36.7566H4V34.7697H3ZM3 38.7434V40.7303H4V38.7434H3ZM3 42.7171V44.704H4V42.7171H3ZM3 46.6908V48.6776H4V46.6908H3ZM3 50.6645V52.6513H4V50.6645H3ZM3 54.6382V56.625H4V54.6382H3ZM3 58.6119V60.5987H4V58.6119H3ZM3 62.5855V64.5724H4V62.5855H3ZM3 66.5592V68.5461H4V66.5592H3ZM3 70.5329V72.5197H4V70.5329H3Z" fill="black"/>
</svg>
