<svg width="33" height="33" viewBox="0 0 33 33" fill="none" xmlns="http://www.w3.org/2000/svg">
<circle cx="16.5" cy="16.5" r="16.5" fill="#CC7D45"/>
<path d="M9 25L10.1247 20.8913C9.43067 19.6887 9.066 18.3253 9.06667 16.9273C9.06867 12.5567 12.6253 9 16.9953 9C19.116 9.00067 21.1066 9.82667 22.604 11.3253C24.1006 12.824 24.9246 14.816 24.924 16.9347C24.922 21.306 21.3653 24.8627 16.9953 24.8627C15.6687 24.862 14.3613 24.5293 13.2033 23.8973L9 25ZM13.398 22.462C14.5153 23.1253 15.582 23.5227 16.9926 23.5233C20.6246 23.5233 23.5833 20.5673 23.5853 16.9333C23.5866 13.292 20.642 10.34 16.998 10.3387C13.3633 10.3387 10.4067 13.2947 10.4053 16.928C10.4047 18.4113 10.8393 19.522 11.5693 20.684L10.9033 23.116L13.398 22.462ZM20.9893 18.8193C20.94 18.7367 20.808 18.6873 20.6093 18.588C20.4113 18.4887 19.4373 18.0093 19.2553 17.9433C19.074 17.8773 18.942 17.844 18.8093 18.0427C18.6773 18.2407 18.2973 18.6873 18.182 18.8193C18.0666 18.9513 17.9506 18.968 17.7526 18.8687C17.5546 18.7693 16.916 18.5607 16.1593 17.8853C15.5707 17.36 15.1727 16.7113 15.0573 16.5127C14.942 16.3147 15.0453 16.2073 15.144 16.1087C15.2333 16.02 15.342 15.8773 15.4413 15.7613C15.542 15.6467 15.5747 15.564 15.6413 15.4313C15.7073 15.2993 15.6747 15.1833 15.6247 15.084C15.5747 14.9853 15.1787 14.01 15.014 13.6133C14.8527 13.2273 14.6893 13.2793 14.568 13.2733L14.188 13.2667C14.056 13.2667 13.8413 13.316 13.66 13.5147C13.4787 13.7133 12.9667 14.192 12.9667 15.1673C12.9667 16.1427 13.6767 17.0847 13.7753 17.2167C13.8747 17.3487 15.172 19.35 17.1593 20.208C17.632 20.412 18.0013 20.534 18.2886 20.6253C18.7633 20.776 19.1953 20.7547 19.5366 20.704C19.9173 20.6473 20.7086 20.2247 20.874 19.762C21.0393 19.2987 21.0393 18.902 20.9893 18.8193Z" fill="white"/>
</svg>
