<svg width="33" height="31" viewBox="0 0 33 31" fill="none" xmlns="http://www.w3.org/2000/svg">
<ellipse cx="16.1734" cy="15.1053" rx="16.1734" ry="15.1053" fill="white"/>
<g clip-path="url(#clip0_2339_360)">
<rect width="15.6833" height="13.7321" transform="translate(8.82178 8.23947)" fill="white"/>
<path d="M24.3488 12.3591C24.3488 12.3591 24.1957 11.4124 23.724 10.9966C23.1266 10.4495 22.4589 10.4468 22.1526 10.4146C19.9594 10.2752 16.6665 10.2752 16.6665 10.2752H16.6604C16.6604 10.2752 13.3675 10.2752 11.1743 10.4146C10.868 10.4468 10.2002 10.4495 9.60288 10.9966C9.13115 11.4124 8.98106 12.3591 8.98106 12.3591C8.98106 12.3591 8.82178 13.4722 8.82178 14.5826V15.6232C8.82178 16.7336 8.978 17.8466 8.978 17.8466C8.978 17.8466 9.13115 18.7934 9.59981 19.2091C10.1971 19.7562 10.9813 19.7375 11.3305 19.7965C12.5864 19.9011 16.6634 19.9333 16.6634 19.9333C16.6634 19.9333 19.9594 19.9279 22.1526 19.7911C22.4589 19.7589 23.1266 19.7562 23.724 19.2091C24.1957 18.7934 24.3488 17.8466 24.3488 17.8466C24.3488 17.8466 24.5051 16.7362 24.5051 15.6232V14.5826C24.5051 13.4722 24.3488 12.3591 24.3488 12.3591ZM15.043 16.8864V13.027L19.2793 14.9634L15.043 16.8864Z" fill="#CC7D45"/>
</g>
<defs>
<clipPath id="clip0_2339_360">
<rect width="15.6833" height="13.7321" fill="white" transform="translate(8.82178 8.23947)"/>
</clipPath>
</defs>
</svg>
