<svg width="33" height="33" viewBox="0 0 33 33" fill="none" xmlns="http://www.w3.org/2000/svg">
<circle cx="16.5" cy="16.5" r="16.5" fill="#CC7D45"/>
<path d="M24.8406 13.5002C24.8406 13.5002 24.6844 12.4661 24.2031 12.012C23.5938 11.4143 22.9125 11.4114 22.6 11.3762C20.3625 11.2239 17.0031 11.2239 17.0031 11.2239H16.9969C16.9969 11.2239 13.6375 11.2239 11.4 11.3762C11.0875 11.4114 10.4062 11.4143 9.79688 12.012C9.31563 12.4661 9.1625 13.5002 9.1625 13.5002C9.1625 13.5002 9 14.7161 9 15.929V17.0657C9 18.2786 9.15937 19.4944 9.15937 19.4944C9.15937 19.4944 9.31562 20.5286 9.79375 20.9827C10.4031 21.5803 11.2031 21.5598 11.5594 21.6243C12.8406 21.7385 17 21.7737 17 21.7737C17 21.7737 20.3625 21.7678 22.6 21.6184C22.9125 21.5833 23.5938 21.5803 24.2031 20.9827C24.6844 20.5286 24.8406 19.4944 24.8406 19.4944C24.8406 19.4944 25 18.2815 25 17.0657V15.929C25 14.7161 24.8406 13.5002 24.8406 13.5002ZM15.3469 18.4456V14.2297L19.6687 16.345L15.3469 18.4456Z" fill="white"/>
</svg>
